<?xml version="1.0" standalone="no"?>
<!DOCTYPE svg PUBLIC "-//W3C//DTD SVG 20010904//EN"
 "http://www.w3.org/TR/2001/REC-SVG-20010904/DTD/svg10.dtd">
<svg version="1.0" xmlns="http://www.w3.org/2000/svg"
 width="94.000000pt" height="94.000000pt" viewBox="0 0 94.000000 94.000000"
 preserveAspectRatio="xMidYMid meet">
<metadata>
Created by potrace 1.14, written by Peter Selinger 2001-2017
</metadata>
<g transform="translate(0.000000,94.000000) scale(0.100000,-0.100000)"
fill="#000000" stroke="none">
<path d="M796 905 c8 -20 -38 -64 -116 -109 -36 -21 -67 -41 -70 -45 -3 -4
-27 -20 -55 -36 -133 -76 -182 -120 -191 -175 -16 -93 -23 -100 -110 -93 -55
4 -94 -8 -94 -30 0 -8 16 -13 48 -13 26 -1 68 -3 95 -5 64 -5 95 25 102 96 3
28 13 61 23 74 10 13 98 75 195 136 98 61 185 119 194 127 19 20 20 67 2 79
-21 13 -29 11 -23 -6z"/>
<path d="M760 755 c-8 -15 -68 -60 -142 -106 -70 -44 -137 -94 -149 -110 -13
-18 -24 -55 -28 -89 -4 -32 -13 -65 -20 -74 -11 -14 -11 -16 3 -16 9 0 15 -3
14 -7 -4 -16 15 -78 26 -85 6 -4 25 -8 41 -8 17 0 35 -4 42 -8 17 -11 5 -50
-17 -57 -34 -11 -70 -46 -70 -69 0 -46 55 -67 105 -39 16 10 15 11 -12 17 -59
13 -53 57 12 86 67 31 71 82 7 86 -15 1 -35 2 -44 3 -12 1 -18 9 -18 25 0 14
-5 28 -10 31 -6 4 -8 10 -5 15 3 5 0 12 -6 15 -5 4 -7 14 -4 24 4 9 8 35 9 58
2 22 10 52 18 65 9 13 67 55 129 93 128 80 162 110 153 140 -10 34 -20 37 -34
10z"/>
<path d="M760 658 c0 -19 -51 -61 -125 -103 -76 -44 -107 -79 -104 -118 2 -18
0 -38 -5 -45 -4 -6 0 -22 8 -34 9 -12 16 -33 16 -45 0 -22 3 -23 63 -22 49 2
70 -2 99 -20 44 -26 86 -23 120 9 22 20 22 22 3 19 -20 -2 -72 9 -90 20 -15 9
-68 9 -91 1 -25 -10 -35 -4 -58 35 -28 50 -11 101 48 147 27 20 61 42 75 49
33 17 71 56 71 73 0 7 -7 21 -15 32 -12 16 -14 17 -15 2z"/>
<path d="M120 382 c-8 -2 -21 -10 -29 -16 -13 -10 12 -18 87 -28 6 -1 12 -5
12 -10 0 -4 5 -8 11 -8 6 0 44 -16 84 -36 79 -39 135 -84 135 -108 0 -8 -18
-29 -39 -46 -39 -32 -48 -67 -24 -91 15 -15 58 -20 84 -11 l23 9 -22 12 c-13
7 -27 22 -32 34 -7 18 -1 29 35 63 24 22 43 48 41 56 -3 26 -55 62 -156 110
-126 61 -182 79 -210 70z"/>
</g>
</svg>
