<svg width="40" height="40" viewBox="0 0 40 40" fill="none" xmlns="http://www.w3.org/2000/svg">
<path fill-rule="evenodd" clip-rule="evenodd" d="M34.5455 0C37.558 0 40 2.44209 40 5.45455V34.5455C40 37.558 37.558 40 34.5455 40H5.45455C2.44209 40 0 37.558 0 34.5455V5.45455C0 2.44209 2.44209 0 5.45455 0H34.5455ZM34.5455 3.63636C35.5496 3.63636 36.3636 4.4504 36.3636 5.45455V34.5455C36.3636 35.5496 35.5496 36.3636 34.5455 36.3636H25.4545V23.6362H29.2295C30.012 23.6362 30.7067 23.1355 30.9544 22.3929L31.7598 19.9765C32.0542 19.0935 31.3969 18.1816 30.4662 18.1816H25.4545V14.5453C25.4545 13.6362 26.3636 12.7271 27.2727 12.7271H30.9091C31.9133 12.7271 32.7273 11.9131 32.7273 10.9089V9.66169C32.7273 9.07438 32.3522 8.54782 31.7842 8.39795C29.4009 7.769 27.2727 7.769 27.2727 7.769C22.7273 7.769 20 10.9089 20 13.6362V18.1816H16.3636C15.3595 18.1816 14.5455 18.9956 14.5455 19.9998V21.818C14.5455 22.8222 15.3595 23.6362 16.3636 23.6362H20V36.3636H5.45455C4.4504 36.3636 3.63636 35.5496 3.63636 34.5455V5.45455C3.63636 4.4504 4.4504 3.63636 5.45455 3.63636H34.5455Z" fill="white"/>
</svg>
