<svg width="155" height="156" viewBox="0 0 155 156" fill="none" xmlns="http://www.w3.org/2000/svg">
<rect x="77.4375" y="0.6875" width="109.513" height="109.513" rx="23" transform="rotate(45 77.4375 0.6875)" fill="#023A66"/>
<path d="M50.2674 121.126C44.1737 121.126 38.8594 120.027 34.3246 117.831C29.7897 115.563 26.2823 112.517 23.8023 108.69C21.3931 104.793 20.1886 100.365 20.1886 95.4046H39.32C39.32 98.168 40.2766 100.435 42.1897 102.207C44.1029 103.907 46.7954 104.758 50.2674 104.758C52.6057 104.758 54.5897 104.333 56.2194 103.482C57.8491 102.561 59.0891 101.357 59.9394 99.8686C60.7897 98.3097 61.2149 96.5737 61.2149 94.6606C61.2149 91.7554 60.2583 89.3463 58.3451 87.4331C56.5029 85.52 53.8103 84.5634 50.2674 84.5634C48.2126 84.5634 46.3703 84.8823 44.7406 85.52C43.1817 86.1577 41.8354 86.9726 40.7017 87.9646L31.88 73.2971L53.3497 60.1177L52.3931 58.4171H23.4834V41.4114H77.4766V58.3109L49.5234 75.3166L40.5954 72.0217C42.0834 71.5966 43.6423 71.2777 45.272 71.0651C46.9726 70.8526 48.7086 70.7463 50.48 70.7463C56.5737 70.7463 61.8526 71.7029 66.3166 73.616C70.7806 75.5291 74.2171 78.2926 76.6263 81.9063C79.1063 85.4491 80.3463 89.7006 80.3463 94.6606V95.936C80.3463 100.825 79.1063 105.183 76.6263 109.009C74.2171 112.765 70.7451 115.741 66.2103 117.937C61.7463 120.063 56.432 121.126 50.2674 121.126ZM108.267 83.6069C104.016 83.6069 100.26 82.6503 97.0008 80.7371C93.7413 78.824 91.1905 76.2731 89.3482 73.0846C87.5768 69.896 86.691 66.3531 86.691 62.456C86.691 58.5589 87.5768 55.0514 89.3482 51.9337C91.1905 48.7451 93.7413 46.1943 97.0008 44.2811C100.26 42.368 104.016 41.4114 108.267 41.4114C112.589 41.4114 116.345 42.368 119.533 44.2811C122.793 46.1943 125.308 48.7451 127.08 51.9337C128.922 55.0514 129.843 58.5589 129.843 62.456C129.843 66.3531 128.922 69.896 127.08 73.0846C125.308 76.2731 122.793 78.824 119.533 80.7371C116.345 82.6503 112.589 83.6069 108.267 83.6069ZM108.267 70.2149C110.605 70.2149 112.448 69.4709 113.794 67.9829C115.14 66.4949 115.813 64.6526 115.813 62.456C115.813 60.2594 115.14 58.4526 113.794 57.0354C112.448 55.5474 110.605 54.8034 108.267 54.8034C105.929 54.8034 104.086 55.5474 102.74 57.0354C101.394 58.4526 100.721 60.2594 100.721 62.456C100.721 64.6526 101.394 66.4949 102.74 67.9829C104.086 69.4709 105.929 70.2149 108.267 70.2149Z" fill="#07A3FF"/>
</svg>
