<svg width="155" height="156" viewBox="0 0 155 156" fill="none" xmlns="http://www.w3.org/2000/svg">
<rect x="77.4375" y="0.6875" width="109.513" height="109.513" rx="23" transform="rotate(45 77.4375 0.6875)" fill="#023A66"/>
<path d="M51.968 121.126C45.7326 121.126 40.312 119.957 35.7063 117.618C31.1714 115.209 27.664 111.985 25.184 107.946C22.704 103.907 21.464 99.3726 21.464 94.3417H40.5954C40.5954 96.4674 41.0914 98.3097 42.0834 99.8686C43.0754 101.427 44.4571 102.632 46.2286 103.482C48 104.333 49.984 104.758 52.1806 104.758C54.7314 104.758 56.8571 104.226 58.5577 103.163C60.3291 102.101 61.64 100.648 62.4903 98.8057C63.4114 96.9634 63.872 94.8731 63.872 92.5349C63.872 90.1966 63.4114 88.1063 62.4903 86.264C61.64 84.4217 60.3646 82.9691 58.664 81.9063C56.9634 80.8434 54.8731 80.312 52.3931 80.312C49.9131 80.312 47.752 80.8789 45.9097 82.0126C44.0674 83.0754 42.7211 84.4217 41.8709 86.0514H23.2709L27.2034 41.4114H76.4137V58.4171H34.4309L42.5086 53.6343L40.3829 77.1234L35.9189 76.0606C38.0446 73.368 40.5954 71.0651 43.5714 69.152C46.6183 67.2389 50.7989 66.2823 56.1131 66.2823C61.64 66.2823 66.3874 67.416 70.3554 69.6834C74.3943 71.88 77.512 74.9269 79.7086 78.824C81.9051 82.6503 83.0034 87.0434 83.0034 92.0034V93.2789C83.0034 98.2389 81.7989 102.845 79.3897 107.096C76.9806 111.277 73.4731 114.678 68.8674 117.299C64.2617 119.85 58.6286 121.126 51.968 121.126ZM109.72 83.6069C105.469 83.6069 101.713 82.6503 98.4539 80.7371C95.1945 78.824 92.6436 76.2731 90.8013 73.0846C89.0299 69.896 88.1442 66.3531 88.1442 62.456C88.1442 58.5589 89.0299 55.0514 90.8013 51.9337C92.6436 48.7451 95.1945 46.1943 98.4539 44.2811C101.713 42.368 105.469 41.4114 109.72 41.4114C114.042 41.4114 117.798 42.368 120.986 44.2811C124.246 46.1943 126.761 48.7451 128.533 51.9337C130.375 55.0514 131.296 58.5589 131.296 62.456C131.296 66.3531 130.375 69.896 128.533 73.0846C126.761 76.2731 124.246 78.824 120.986 80.7371C117.798 82.6503 114.042 83.6069 109.72 83.6069ZM109.72 70.2149C112.058 70.2149 113.901 69.4709 115.247 67.9829C116.593 66.4949 117.266 64.6526 117.266 62.456C117.266 60.2594 116.593 58.4526 115.247 57.0354C113.901 55.5474 112.058 54.8034 109.72 54.8034C107.382 54.8034 105.54 55.5474 104.193 57.0354C102.847 58.4526 102.174 60.2594 102.174 62.456C102.174 64.6526 102.847 66.4949 104.193 67.9829C105.54 69.4709 107.382 70.2149 109.72 70.2149Z" fill="#07A3FF"/>
</svg>
