<svg width="155" height="156" viewBox="0 0 155 156" fill="none" xmlns="http://www.w3.org/2000/svg">
<rect x="77.4376" y="0.6875" width="109.513" height="109.513" rx="23" transform="rotate(45 77.4376 0.6875)" fill="#023A66"/>
<path d="M34.6434 119V55.016L39.32 58.6297H20.1886V41.4114H54.4126V119H34.6434ZM86.1588 83.6069C81.9074 83.6069 78.1519 82.6503 74.8925 80.7371C71.6331 78.824 69.0822 76.2731 67.2399 73.0846C65.4685 69.896 64.5828 66.3531 64.5828 62.456C64.5828 58.5589 65.4685 55.0514 67.2399 51.9337C69.0822 48.7451 71.6331 46.1943 74.8925 44.2811C78.1519 42.368 81.9074 41.4114 86.1588 41.4114C90.4811 41.4114 94.2365 42.368 97.4251 44.2811C100.685 46.1943 103.2 48.7451 104.971 51.9337C106.814 55.0514 107.735 58.5589 107.735 62.456C107.735 66.3531 106.814 69.896 104.971 73.0846C103.2 76.2731 100.685 78.824 97.4251 80.7371C94.2365 82.6503 90.4811 83.6069 86.1588 83.6069ZM86.1588 70.2149C88.4971 70.2149 90.3394 69.4709 91.6856 67.9829C93.0319 66.4949 93.7051 64.6526 93.7051 62.456C93.7051 60.2594 93.0319 58.4526 91.6856 57.0354C90.3394 55.5474 88.4971 54.8034 86.1588 54.8034C83.8205 54.8034 81.9782 55.5474 80.6319 57.0354C79.2856 58.4526 78.6125 60.2594 78.6125 62.456C78.6125 64.6526 79.2856 66.4949 80.6319 67.9829C81.9782 69.4709 83.8205 70.2149 86.1588 70.2149Z" fill="#07A3FF"/>
</svg>
