<svg width="98" height="93" viewBox="0 0 98 93" fill="none" xmlns="http://www.w3.org/2000/svg">
<g filter="url(#filter0_b_119_40)">
<rect width="97.9098" height="92.4366" rx="24.9336" fill="#07A3FF"/>
</g>
<g clip-path="url(#clip0_119_40)">
<path d="M44.5999 54.4L40.5999 50.5C40.2534 50.1458 40.0433 49.6806 40.0067 49.1865C39.9701 48.6924 40.1094 48.2013 40.3999 47.8C40.5618 47.5589 40.7767 47.3582 41.0282 47.2132C41.2797 47.0682 41.5611 46.9828 41.8508 46.9635C42.1405 46.9442 42.4307 46.9915 42.6993 47.1018C42.9678 47.2122 43.2075 47.3826 43.3999 47.6L45.9999 50.2L54.5999 41.6C54.985 41.3111 55.4615 41.1709 55.9417 41.205C56.4219 41.2391 56.8737 41.4453 57.2141 41.7857C57.5545 42.1262 57.7607 42.578 57.7949 43.0582C57.829 43.5384 57.6888 44.0148 57.3999 44.4L47.3999 54.4C47.2219 54.5939 47.0056 54.7488 46.7646 54.8548C46.5236 54.9607 46.2632 55.0154 45.9999 55.0154C45.7366 55.0154 45.4763 54.9607 45.2352 54.8548C44.9942 54.7488 44.7779 54.5939 44.5999 54.4Z" fill="white"/>
<path d="M49 34C51.9667 34 54.8668 34.8797 57.3336 36.528C59.8003 38.1762 61.7229 40.5189 62.8582 43.2597C63.9935 46.0006 64.2906 49.0166 63.7118 51.9264C63.133 54.8361 61.7044 57.5088 59.6066 59.6066C57.5088 61.7044 54.8361 63.133 51.9264 63.7118C49.0166 64.2906 46.0006 63.9935 43.2598 62.8582C40.5189 61.7229 38.1762 59.8003 36.528 57.3336C34.8797 54.8668 34 51.9667 34 49C34 45.0218 35.5804 41.2064 38.3934 38.3934C41.2065 35.5804 45.0218 34 49 34ZM49 30C45.2422 30 41.5687 31.1143 38.4442 33.2021C35.3196 35.2898 32.8844 38.2572 31.4463 41.729C30.0082 45.2008 29.632 49.0211 30.3651 52.7067C31.0982 56.3924 32.9078 59.7778 35.565 62.435C38.2222 65.0922 41.6077 66.9018 45.2933 67.6349C48.9789 68.368 52.7992 67.9918 56.271 66.5537C59.7428 65.1156 62.7102 62.6804 64.7979 59.5558C66.8857 56.4313 68 52.7578 68 49C68 43.9609 65.9982 39.1282 62.435 35.565C58.8718 32.0018 54.0391 30 49 30Z" fill="white"/>
<path d="M31 34.0002C30.6909 33.9929 30.3871 33.9174 30.1106 33.7791C29.834 33.6408 29.5913 33.4432 29.4 33.2002C29.2424 32.9901 29.1278 32.751 29.0626 32.4966C28.9974 32.2422 28.983 31.9774 29.0201 31.7174C29.0951 31.1923 29.3757 30.7185 29.8 30.4002L37.8 24.4002C38.0101 24.2427 38.2492 24.128 38.5036 24.0628C38.7581 23.9976 39.0228 23.9832 39.2828 24.0203C39.5428 24.0575 39.793 24.1455 40.019 24.2793C40.245 24.4131 40.4424 24.5901 40.6 24.8002C40.7576 25.0104 40.8722 25.2495 40.9374 25.5039C41.0026 25.7583 41.017 26.0231 40.9799 26.2831C40.9428 26.5431 40.8548 26.7932 40.7209 27.0192C40.5871 27.2452 40.4101 27.4427 40.2 27.6002L32.2 33.6002C31.8574 33.8667 31.4339 34.0079 31 34.0002Z" fill="white"/>
<path d="M67 34C66.5661 34.0076 66.1426 33.8665 65.8 33.6L57.8 27.6C57.5899 27.4424 57.4129 27.245 57.2791 27.019C57.1452 26.793 57.0572 26.5429 57.0201 26.2829C56.983 26.0228 56.9974 25.7581 57.0626 25.5036C57.1278 25.2492 57.2424 25.0101 57.4 24.8C57.7183 24.3757 58.1921 24.0951 58.7172 24.0201C59.2423 23.9451 59.7757 24.0817 60.2 24.4L68.2 30.4C68.6243 30.7183 68.9049 31.1921 68.9799 31.7172C69.0549 32.2423 68.9183 32.7757 68.6 33.2C68.4087 33.4429 68.166 33.6406 67.8894 33.7789C67.6129 33.9172 67.3091 33.9927 67 34Z" fill="white"/>
</g>
<defs>
<filter id="filter0_b_119_40" x="-11.5546" y="-11.5546" width="121.019" height="115.546" filterUnits="userSpaceOnUse" color-interpolation-filters="sRGB">
<feFlood flood-opacity="0" result="BackgroundImageFix"/>
<feGaussianBlur in="BackgroundImageFix" stdDeviation="5.77729"/>
<feComposite in2="SourceAlpha" operator="in" result="effect1_backgroundBlur_119_40"/>
<feBlend mode="normal" in="SourceGraphic" in2="effect1_backgroundBlur_119_40" result="shape"/>
</filter>
<clipPath id="clip0_119_40">
<rect width="48" height="48" fill="white" transform="translate(25 22)"/>
</clipPath>
</defs>
</svg>
