<svg width="68" height="65" viewBox="0 0 68 65" fill="none" xmlns="http://www.w3.org/2000/svg">
<g filter="url(#filter0_b_119_53)">
<rect y="0.721191" width="68" height="64" rx="16" fill="#4BB127"/>
</g>
<g clip-path="url(#clip0_119_53)">
<path d="M43.7199 32.7212C42.4614 31.6663 40.8615 31.1063 39.2199 31.1462H28.6674C28.1862 31.1583 27.7076 31.0733 27.2601 30.8961C26.8126 30.7189 26.4055 30.4533 26.0631 30.1151C25.7207 29.7769 25.45 29.373 25.2673 28.9278C25.0846 28.4825 24.9937 28.0049 24.9999 27.5237C24.9882 27.3364 24.9882 27.1485 24.9999 26.9612C25.1418 26.1013 25.5927 25.3227 26.268 24.7717C26.9433 24.2207 27.7965 23.9351 28.6674 23.9687H39.0624C39.9103 23.968 40.731 24.2684 41.378 24.8165C42.0249 25.3646 42.4562 26.1247 42.5949 26.9612H45.9699C45.8286 25.2263 45.0396 23.6081 43.7598 22.4283C42.48 21.2486 40.803 20.5936 39.0624 20.5937H35.5074V15.4187H32.6949V20.5937H28.6674C26.9267 20.5936 25.2498 21.2486 23.97 22.4283C22.6902 23.6081 21.9012 25.2263 21.7599 26.9612C21.7487 27.1485 21.7487 27.3364 21.7599 27.5237C21.7599 28.4308 21.9386 29.329 22.2857 30.1671C22.6328 31.0051 23.1416 31.7666 23.783 32.408C25.0785 33.7034 26.8354 34.4312 28.6674 34.4312H39.3324C39.8097 34.4192 40.2846 34.5028 40.7291 34.6772C41.1736 34.8516 41.5786 35.1133 41.9204 35.4467C42.2622 35.7801 42.5338 36.1785 42.7192 36.6185C42.9046 37.0586 43 37.5312 42.9999 38.0087C43.0232 38.2632 43.0232 38.5192 42.9999 38.7737C42.8212 39.5654 42.3787 40.2728 41.745 40.7798C41.1112 41.2867 40.324 41.5632 39.5124 41.5637H28.9374C28.1258 41.5632 27.3385 41.2867 26.7048 40.7798C26.0711 40.2728 25.6285 39.5654 25.4499 38.7737H22.0524C22.2457 40.4642 23.0543 42.0246 24.324 43.1573C25.5937 44.2901 27.2358 44.9162 28.9374 44.9162H32.6949V50.0237H35.5074V44.9162H39.3324C41.034 44.9162 42.676 44.2901 43.9457 43.1573C45.2155 42.0246 46.024 40.4642 46.2174 38.7737V38.0087C46.2147 36.9981 45.9895 36.0004 45.5579 35.0866C45.1262 34.1728 44.4987 33.3652 43.7199 32.7212Z" fill="white"/>
</g>
<defs>
<filter id="filter0_b_119_53" x="-11.5546" y="-10.8334" width="91.1092" height="87.1092" filterUnits="userSpaceOnUse" color-interpolation-filters="sRGB">
<feFlood flood-opacity="0" result="BackgroundImageFix"/>
<feGaussianBlur in="BackgroundImageFix" stdDeviation="5.77729"/>
<feComposite in2="SourceAlpha" operator="in" result="effect1_backgroundBlur_119_53"/>
<feBlend mode="normal" in="SourceGraphic" in2="effect1_backgroundBlur_119_53" result="shape"/>
</filter>
<clipPath id="clip0_119_53">
<rect width="36" height="36" fill="white" transform="translate(16 14.7212)"/>
</clipPath>
</defs>
</svg>
