<svg width="36" height="36" viewBox="0 0 36 36" fill="none" xmlns="http://www.w3.org/2000/svg">
<path d="M21.3328 4.33269L20.9838 3.8438C19.5213 1.79653 16.4787 1.79653 15.0163 3.8438L14.6672 4.33269C13.895 5.41361 12.5987 5.99243 11.2785 5.84572L9.72197 5.67279C7.38662 5.4133 5.41333 7.38659 5.67282 9.72194L5.84576 11.2785C5.99246 12.5987 5.41364 13.895 4.33272 14.6672L3.84383 15.0162C1.79656 16.4787 1.79656 19.5213 3.84383 20.9837L4.33272 21.3328C5.41364 22.105 5.99246 23.4013 5.84576 24.7215L5.67282 26.278C5.41333 28.6133 7.38662 30.5867 9.72197 30.3271L11.2785 30.1542C12.5987 30.0076 13.895 30.5864 14.6672 31.6673L15.0163 32.1561C16.4787 34.2033 19.5213 34.2033 20.9838 32.1561L21.3328 31.6673C22.105 30.5864 23.4014 30.0076 24.7216 30.1542L26.2781 30.3271C28.6134 30.5867 30.5868 28.6133 30.3272 26.278L30.1543 24.7215C30.0076 23.4013 30.5864 22.105 31.6673 21.3328L32.1561 20.9837C34.2034 19.5213 34.2034 16.4787 32.1561 15.0162L31.6673 14.6672C30.5864 13.895 30.0076 12.5987 30.1543 11.2785L30.3272 9.72194C30.5868 7.38659 28.6134 5.4133 26.2781 5.67279L24.7216 5.84572C23.4014 5.99243 22.105 5.41361 21.3328 4.33269Z" stroke="white" stroke-width="3.66667" stroke-linecap="round" stroke-linejoin="round"/>
<path d="M12.5 17.9999L15.8347 21.3346C16.018 21.5179 16.3153 21.5179 16.4987 21.3346L23.5 14.3333" stroke="white" stroke-width="3.66667" stroke-linecap="round" stroke-linejoin="round"/>
</svg>
