<svg width="155" height="156" viewBox="0 0 155 156" fill="none" xmlns="http://www.w3.org/2000/svg">
<rect x="77.4376" y="0.6875" width="109.513" height="109.513" rx="23" transform="rotate(45 77.4376 0.6875)" fill="#023A66"/>
<path d="M22.7394 119V101.994C22.7394 98.5931 23.3063 95.6171 24.44 93.0663C25.6446 90.4446 27.4869 88.1417 29.9669 86.1577C32.5177 84.1737 35.8126 82.3314 39.8514 80.6309L51.6491 75.6354C54.696 74.36 56.8926 72.8366 58.2389 71.0651C59.656 69.2937 60.3646 67.0617 60.3646 64.3691C60.3646 61.8891 59.5143 59.7989 57.8137 58.0983C56.184 56.3269 53.7749 55.4411 50.5863 55.4411C47.3269 55.4411 44.8823 56.3623 43.2526 58.2046C41.6229 59.976 40.808 62.3851 40.808 65.432H21.6766C21.6766 60.3303 22.7749 55.7954 24.9714 51.8274C27.168 47.8594 30.392 44.7417 34.6434 42.4743C38.9657 40.2069 44.28 39.0731 50.5863 39.0731C56.8217 39.0731 62.0651 40.1714 66.3166 42.368C70.6389 44.4937 73.8983 47.4343 76.0949 51.1897C78.3623 54.8743 79.496 59.0549 79.496 63.7314V65.0069C79.496 71.0297 77.8663 75.9897 74.6069 79.8869C71.3474 83.784 66.104 87.2914 58.8766 90.4091L47.0789 95.4046C45.3783 96.1131 44.1029 96.8926 43.2526 97.7429C42.4731 98.5931 42.0834 99.7269 42.0834 101.144V104.97L37.5131 101.994H79.2834V119H22.7394ZM108.059 83.6069C103.808 83.6069 100.053 82.6503 96.7932 80.7371C93.5337 78.824 90.9829 76.2731 89.1406 73.0846C87.3692 69.896 86.4835 66.3531 86.4835 62.456C86.4835 58.5589 87.3692 55.0514 89.1406 51.9337C90.9829 48.7451 93.5337 46.1943 96.7932 44.2811C100.053 42.368 103.808 41.4114 108.059 41.4114C112.382 41.4114 116.137 42.368 119.326 44.2811C122.585 46.1943 125.101 48.7451 126.872 51.9337C128.714 55.0514 129.635 58.5589 129.635 62.456C129.635 66.3531 128.714 69.896 126.872 73.0846C125.101 76.2731 122.585 78.824 119.326 80.7371C116.137 82.6503 112.382 83.6069 108.059 83.6069ZM108.059 70.2149C110.398 70.2149 112.24 69.4709 113.586 67.9829C114.933 66.4949 115.606 64.6526 115.606 62.456C115.606 60.2594 114.933 58.4526 113.586 57.0354C112.24 55.5474 110.398 54.8034 108.059 54.8034C105.721 54.8034 103.879 55.5474 102.533 57.0354C101.186 58.4526 100.513 60.2594 100.513 62.456C100.513 64.6526 101.186 66.4949 102.533 67.9829C103.879 69.4709 105.721 70.2149 108.059 70.2149Z" fill="#07A3FF"/>
</svg>
