<svg width="98" height="94" viewBox="0 0 98 94" fill="none" xmlns="http://www.w3.org/2000/svg">
<g filter="url(#filter0_b_119_57)">
<rect y="0.721191" width="97.9098" height="92.4366" rx="24.9336" fill="#07A3FF"/>
</g>
<path d="M66.6956 30.3521H31.3044C28.9309 30.3521 27 32.283 27 34.6564V57.6129C27 59.9863 28.9309 61.9172 31.3044 61.9172H44.0298L47.7574 68.3737C48.3093 69.3298 49.6916 69.3281 50.2425 68.3737L53.9701 61.9172H66.6956C69.069 61.9172 70.9999 59.9863 70.9999 57.6129V34.6564C71 32.283 69.0691 30.3521 66.6956 30.3521ZM68.1305 57.613C68.1305 58.4041 67.4868 59.0478 66.6956 59.0478H53.1418C52.6292 59.0478 52.1555 59.3212 51.8994 59.7652L49 64.7869L46.1007 59.7651C45.8445 59.3212 45.3708 59.0477 44.8582 59.0477H31.3044C30.5132 59.0477 29.8695 58.404 29.8695 57.6129V34.6564C29.8695 33.8653 30.5132 33.2216 31.3044 33.2216H66.6956C67.4868 33.2216 68.1305 33.8653 68.1305 34.6564V57.613Z" fill="white"/>
<path d="M57.9989 39.9812L53.9197 41.7088C52.9031 42.1394 52.7353 43.5112 53.6148 44.1752L54.1333 44.5665L50.8737 48.6646L46.2771 42.8855C45.7031 42.1638 44.6053 42.1639 44.0313 42.8855L38.3119 50.0762C37.8187 50.6964 37.9215 51.5991 38.5417 52.0923C39.1621 52.5858 40.0646 52.4825 40.5578 51.8625L45.1544 46.0835L49.7509 51.8625C50.325 52.5843 51.4227 52.5842 51.9967 51.8625L56.4246 46.2958L57.1567 46.8484C58.0316 47.5089 59.3087 46.9818 59.445 45.8792L59.9892 41.4754C60.1255 40.3721 59.0102 39.5483 57.9989 39.9812Z" fill="white"/>
<defs>
<filter id="filter0_b_119_57" x="-11.5546" y="-10.8334" width="121.019" height="115.546" filterUnits="userSpaceOnUse" color-interpolation-filters="sRGB">
<feFlood flood-opacity="0" result="BackgroundImageFix"/>
<feGaussianBlur in="BackgroundImageFix" stdDeviation="5.77729"/>
<feComposite in2="SourceAlpha" operator="in" result="effect1_backgroundBlur_119_57"/>
<feBlend mode="normal" in="SourceGraphic" in2="effect1_backgroundBlur_119_57" result="shape"/>
</filter>
</defs>
</svg>
