<svg width="155" height="156" viewBox="0 0 155 156" fill="none" xmlns="http://www.w3.org/2000/svg">
<rect x="77.4375" y="0.6875" width="109.513" height="109.513" rx="23" transform="rotate(45 77.4375 0.6875)" fill="#023A66"/>
<path d="M19.976 105.289V85.2011L48.4606 39.0731L64.0846 48.9577L40.5954 87.2206L42.1897 89.5589H87.3611V105.289H19.976ZM60.6834 119V62.7749H78.9646V119H60.6834ZM112.938 83.6069C108.686 83.6069 104.931 82.6503 101.672 80.7371C98.4121 78.824 95.8612 76.2731 94.0189 73.0846C92.2475 69.896 91.3618 66.3531 91.3618 62.456C91.3618 58.5589 92.2475 55.0514 94.0189 51.9337C95.8612 48.7451 98.4121 46.1943 101.672 44.2811C104.931 42.368 108.686 41.4114 112.938 41.4114C117.26 41.4114 121.016 42.368 124.204 44.2811C127.464 46.1943 129.979 48.7451 131.75 51.9337C133.593 55.0514 134.514 58.5589 134.514 62.456C134.514 66.3531 133.593 69.896 131.75 73.0846C129.979 76.2731 127.464 78.824 124.204 80.7371C121.016 82.6503 117.26 83.6069 112.938 83.6069ZM112.938 70.2149C115.276 70.2149 117.118 69.4709 118.465 67.9829C119.811 66.4949 120.484 64.6526 120.484 62.456C120.484 60.2594 119.811 58.4526 118.465 57.0354C117.118 55.5474 115.276 54.8034 112.938 54.8034C110.6 54.8034 108.757 55.5474 107.411 57.0354C106.065 58.4526 105.392 60.2594 105.392 62.456C105.392 64.6526 106.065 66.4949 107.411 67.9829C108.757 69.4709 110.6 70.2149 112.938 70.2149Z" fill="#07A3FF"/>
</svg>
