<svg width="68" height="65" viewBox="0 0 68 65" fill="none" xmlns="http://www.w3.org/2000/svg">
<g filter="url(#filter0_b_119_37)">
<rect y="0.721191" width="68" height="64" rx="16" fill="#4BB127"/>
</g>
<path d="M30.6667 42.7212H37.3333M26.0001 17.7212H42C43.8668 17.7212 44.8003 17.7212 45.5133 18.0845C46.1405 18.4041 46.6505 18.914 46.97 19.5412C47.3333 20.2543 47.3333 21.1877 47.3333 23.0545V32.3879C47.3333 34.2547 47.3333 35.1882 46.97 35.9012C46.6505 36.5284 46.1405 37.0384 45.5133 37.3579C44.8003 37.7212 43.8668 37.7212 42 37.7212H26.0001C24.1332 37.7212 23.1998 37.7212 22.4868 37.3579C21.8595 37.0384 21.3496 36.5284 21.03 35.9012C20.6667 35.1882 20.6667 34.2547 20.6667 32.3879V23.0545C20.6667 21.1877 20.6667 20.2543 21.03 19.5412C21.3496 18.914 21.8595 18.4041 22.4868 18.0845C23.1998 17.7212 24.1332 17.7212 26.0001 17.7212ZM21.6481 47.7212H46.352C47.7807 47.7212 48.495 47.7212 48.9252 47.4204C49.3008 47.1575 49.5518 46.7517 49.6188 46.2982C49.6955 45.7787 49.376 45.1399 48.7372 43.862L47.8778 42.1435C47.0752 40.5382 46.6738 39.7355 46.0752 39.149C45.5457 38.6305 44.9075 38.2362 44.2068 37.9945C43.4147 37.7212 42.5172 37.7212 40.7225 37.7212H27.2777C25.4829 37.7212 24.5855 37.7212 23.7932 37.9945C23.0926 38.2362 22.4544 38.6305 21.925 39.149C21.3262 39.7355 20.9249 40.5382 20.1222 42.1435L19.263 43.862C18.6241 45.1399 18.3046 45.7787 18.3813 46.2982C18.4483 46.7517 18.6992 47.1575 19.0749 47.4204C19.5051 47.7212 20.2194 47.7212 21.6481 47.7212Z" stroke="white" stroke-width="3.33333" stroke-linecap="round" stroke-linejoin="round"/>
<defs>
<filter id="filter0_b_119_37" x="-11.5546" y="-10.8334" width="91.1092" height="87.1092" filterUnits="userSpaceOnUse" color-interpolation-filters="sRGB">
<feFlood flood-opacity="0" result="BackgroundImageFix"/>
<feGaussianBlur in="BackgroundImageFix" stdDeviation="5.77729"/>
<feComposite in2="SourceAlpha" operator="in" result="effect1_backgroundBlur_119_37"/>
<feBlend mode="normal" in="SourceGraphic" in2="effect1_backgroundBlur_119_37" result="shape"/>
</filter>
</defs>
</svg>
