<svg width="34" height="30" viewBox="0 0 34 30" fill="none" xmlns="http://www.w3.org/2000/svg">
<path d="M31.7411 0.603271H2.25887C1.01064 0.603271 0 1.61497 0 2.86215V21.7195C0 22.9666 1.01064 23.9783 2.25887 23.9783H14.6094V24.4816C14.6094 25.7287 13.5987 26.7404 12.3505 26.7404H9.03125V29.3967H13.8914H20.1087H24.9688V26.7404H21.6495C20.4013 26.7404 19.3906 25.7288 19.3906 24.4816V23.9783H31.7411C32.9894 23.9783 34 22.9667 34 21.7195V2.86215C34 1.61497 32.9894 0.603271 31.7411 0.603271ZM30.8125 18.975C30.8125 19.3911 30.4753 19.7283 30.0592 19.7283H3.94081C3.52471 19.7283 3.1875 19.3911 3.1875 18.975V4.54408C3.1875 4.12798 3.52471 3.79077 3.94081 3.79077H30.0593C30.4754 3.79077 30.8126 4.12798 30.8126 4.54408V18.975H30.8125Z" fill="white"/>
</svg>
