<svg width="42" height="42" viewBox="0 0 42 42" fill="none" xmlns="http://www.w3.org/2000/svg">
<path fill-rule="evenodd" clip-rule="evenodd" d="M29.6737 0.25773C33.0923 0.411976 36.0553 1.24777 38.4479 3.63024C40.8488 6.02523 41.6742 8.99998 41.8288 12.383C41.925 14.4945 42.487 30.4464 40.8571 34.6299C39.758 37.4521 37.5933 39.6221 34.7452 40.7248C33.4162 41.2417 31.8991 41.5916 29.6737 41.6938C11.066 42.5359 4.16833 42.0774 1.25964 34.6298C0.743508 33.3042 0.388276 31.7884 0.290063 29.5685C-0.560391 10.9131 0.427944 6.8694 3.67097 3.63024C6.24324 1.06433 9.26897 -0.682337 29.6737 0.25773ZM29.5024 37.9419C31.5398 37.8501 32.6451 37.5107 33.3828 37.2251C35.2383 36.5039 36.632 35.1159 37.3488 33.2712C38.59 30.0925 38.1783 14.9951 38.0676 12.5522C37.9589 10.1593 37.4741 7.97231 35.7858 6.28395C33.6962 4.19953 30.9965 3.17798 12.6144 4.00758C10.2156 4.11596 8.02359 4.59975 6.33103 6.28395C4.24145 8.36835 3.20502 11.0888 4.04921 29.4004C4.14115 31.4327 4.48174 32.5354 4.76801 33.2712C6.65908 38.1174 11.0096 38.7902 29.5024 37.9419ZM12.4117 9.84821C12.4117 11.2281 11.2896 12.3502 9.90419 12.3502C8.5188 12.3502 7.39461 11.2281 7.39461 9.84821C7.39461 8.46834 8.5188 7.34728 9.90419 7.34728C11.2896 7.34728 12.4117 8.46834 12.4117 9.84821ZM31.7884 20.9747C31.7884 26.8861 26.9844 31.6788 21.0584 31.6788C15.1323 31.6788 10.3284 26.8861 10.3284 20.9747C10.3284 15.0633 15.1323 10.2737 21.0584 10.2737C26.9844 10.2737 31.7884 15.0633 31.7884 20.9747ZM28.023 20.9747C28.023 17.1394 24.9053 14.0277 21.0584 14.0277C17.2115 14.0277 14.0938 17.1394 14.0938 20.9747C14.0938 24.8121 17.2115 27.9248 21.0584 27.9248C24.9053 27.9248 28.023 24.8121 28.023 20.9747Z" fill="white"/>
</svg>
